<svg width="168" height="22" viewBox="0 0 168 22" fill="none" xmlns="http://www.w3.org/2000/svg">
<path d="M162.344 17.4161C161.201 17.4161 160.213 17.1733 159.379 16.6878C158.55 16.1974 157.91 15.5157 157.459 14.6427C157.008 13.7649 156.782 12.7472 156.782 11.5898C156.782 10.4226 157.008 9.40255 157.459 8.5296C157.91 7.65174 158.55 6.97005 159.379 6.48453C160.213 5.99411 161.201 5.7489 162.344 5.7489C163.487 5.7489 164.472 5.99411 165.301 6.48453C166.135 6.97005 166.777 7.65174 167.228 8.5296C167.68 9.40255 167.905 10.4226 167.905 11.5898C167.905 12.7472 167.68 13.7649 167.228 14.6427C166.777 15.5157 166.135 16.1974 165.301 16.6878C164.472 17.1733 163.487 17.4161 162.344 17.4161ZM162.359 14.9885C162.878 14.9885 163.312 14.8413 163.661 14.5471C164.009 14.2479 164.271 13.8409 164.448 13.3259C164.629 12.811 164.72 12.2249 164.72 11.5678C164.72 10.9106 164.629 10.3245 164.448 9.8096C164.271 9.29466 164.009 8.88761 163.661 8.58845C163.312 8.28929 162.878 8.13971 162.359 8.13971C161.834 8.13971 161.392 8.28929 161.034 8.58845C160.681 8.88761 160.414 9.29466 160.233 9.8096C160.056 10.3245 159.968 10.9106 159.968 11.5678C159.968 12.2249 160.056 12.811 160.233 13.3259C160.414 13.8409 160.681 14.2479 161.034 14.5471C161.392 14.8413 161.834 14.9885 162.359 14.9885Z" fill="black"/>
<path d="M147.399 21.4327C147.002 21.4327 146.629 21.4008 146.281 21.3371C145.938 21.2782 145.653 21.2022 145.428 21.109L146.134 18.7697C146.502 18.8825 146.833 18.9438 147.127 18.9536C147.426 18.9634 147.684 18.8948 147.9 18.7477C148.12 18.6005 148.299 18.3504 148.437 17.9973L148.62 17.5191L144.567 5.89612H147.863L150.202 14.1941H150.32L152.681 5.89612H155.999L151.607 18.4166C151.396 19.0247 151.109 19.5544 150.746 20.0056C150.388 20.4617 149.935 20.8123 149.386 21.0575C148.836 21.3077 148.174 21.4327 147.399 21.4327Z" fill="black"/>
<path d="M136.065 13.9441L136.073 10.185H136.529L140.148 5.89621H143.745L138.883 11.5753H138.14L136.065 13.9441ZM133.226 17.1956V2.12976H136.36V17.1956H133.226ZM140.288 17.1956L136.963 12.2742L139.052 10.0599L143.959 17.1956H140.288Z" fill="black"/>
<path d="M125.626 17.4161C124.484 17.4161 123.495 17.1733 122.662 16.6878C121.833 16.1974 121.193 15.5157 120.742 14.6427C120.291 13.7649 120.065 12.7472 120.065 11.5898C120.065 10.4226 120.291 9.40255 120.742 8.5296C121.193 7.65174 121.833 6.97005 122.662 6.48453C123.495 5.99411 124.484 5.7489 125.626 5.7489C126.769 5.7489 127.755 5.99411 128.584 6.48453C129.417 6.97005 130.06 7.65174 130.511 8.5296C130.962 9.40255 131.188 10.4226 131.188 11.5898C131.188 12.7472 130.962 13.7649 130.511 14.6427C130.06 15.5157 129.417 16.1974 128.584 16.6878C127.755 17.1733 126.769 17.4161 125.626 17.4161ZM125.641 14.9885C126.161 14.9885 126.595 14.8413 126.943 14.5471C127.291 14.2479 127.554 13.8409 127.73 13.3259C127.912 12.811 128.002 12.2249 128.002 11.5678C128.002 10.9106 127.912 10.3245 127.73 9.8096C127.554 9.29466 127.291 8.88761 126.943 8.58845C126.595 8.28929 126.161 8.13971 125.641 8.13971C125.116 8.13971 124.675 8.28929 124.317 8.58845C123.964 8.88761 123.697 9.29466 123.515 9.8096C123.339 10.3245 123.25 10.9106 123.25 11.5678C123.25 12.2249 123.339 12.811 123.515 13.3259C123.697 13.8409 123.964 14.2479 124.317 14.5471C124.675 14.8413 125.116 14.9885 125.641 14.9885Z" fill="black"/>
<path d="M107.807 4.75598V2.12976H120.181V4.75598H115.568V17.1956H112.42V4.75598H107.807Z" fill="black"/>
<path d="M101.487 5.8961V8.25013H94.6821V5.8961H101.487ZM96.227 3.18896H99.3608V13.7232C99.3608 14.0126 99.4049 14.2382 99.4932 14.4C99.5815 14.557 99.7041 14.6673 99.861 14.7311C100.023 14.7948 100.209 14.8267 100.42 14.8267C100.567 14.8267 100.714 14.8144 100.861 14.7899C101.009 14.7605 101.121 14.7384 101.2 14.7237L101.693 17.0557C101.536 17.1047 101.315 17.1611 101.031 17.2249C100.746 17.2935 100.4 17.3352 99.9934 17.3499C99.2382 17.3794 98.5761 17.2788 98.0072 17.0483C97.4432 16.8178 97.0043 16.4598 96.6904 15.9743C96.3765 15.4888 96.2221 14.8757 96.227 14.1352V3.18896Z" fill="black"/>
<path d="M93.2459 9.11811L90.3769 9.29466C90.3279 9.04945 90.2224 8.82876 90.0606 8.63259C89.8987 8.43151 89.6854 8.27213 89.4206 8.15443C89.1607 8.03182 88.8492 7.97052 88.4863 7.97052C88.0008 7.97052 87.5913 8.07351 87.2578 8.27948C86.9243 8.48056 86.7576 8.75029 86.7576 9.08868C86.7576 9.35841 86.8655 9.58646 87.0813 9.77282C87.297 9.95918 87.6673 10.1088 88.1921 10.2216L90.2371 10.6335C91.3357 10.8591 92.1547 11.222 92.6941 11.7223C93.2336 12.2225 93.5034 12.8797 93.5034 13.6938C93.5034 14.4343 93.2851 15.0841 92.8486 15.6432C92.4171 16.2023 91.8236 16.6387 91.0684 16.9526C90.318 17.2616 89.4525 17.4161 88.4716 17.4161C86.9758 17.4161 85.7841 17.1046 84.8964 16.4818C84.0137 15.8541 83.4963 15.0007 83.3442 13.9218L86.4265 13.76C86.5197 14.2161 86.7453 14.5643 87.1033 14.8046C87.4613 15.04 87.9199 15.1577 88.479 15.1577C89.0282 15.1577 89.4696 15.0522 89.8031 14.8413C90.1415 14.6256 90.3131 14.3485 90.318 14.0101C90.3131 13.7256 90.193 13.4927 89.9576 13.3112C89.7222 13.1249 89.3593 12.9826 88.8689 12.8846L86.9121 12.4947C85.8086 12.274 84.9872 11.8914 84.4477 11.3471C83.9131 10.8027 83.6458 10.1088 83.6458 9.26523C83.6458 8.53941 83.842 7.91412 84.2344 7.38937C84.6316 6.86461 85.1882 6.46001 85.9042 6.17557C86.6252 5.89112 87.4687 5.7489 88.4348 5.7489C89.862 5.7489 90.985 6.05051 91.804 6.65373C92.6279 7.25695 93.1086 8.07841 93.2459 9.11811Z" fill="black"/>
<path d="M73.641 21.4327C73.2438 21.4327 72.8711 21.4008 72.5229 21.3371C72.1796 21.2782 71.8951 21.2022 71.6695 21.109L72.3757 18.7697C72.7436 18.8825 73.0746 18.9438 73.3688 18.9536C73.668 18.9634 73.9255 18.8948 74.1413 18.7477C74.362 18.6005 74.541 18.3504 74.6783 17.9973L74.8622 17.5191L70.8088 5.89612H74.1045L76.4438 14.1941H76.5615L78.9229 5.89612H82.2406L77.8489 18.4166C77.638 19.0247 77.3511 19.5544 76.9882 20.0056C76.6302 20.4617 76.1765 20.8123 75.6272 21.0575C75.078 21.3077 74.4159 21.4327 73.641 21.4327Z" fill="black"/>
<path d="M69.1961 2.12976V17.1956H66.0623V2.12976H69.1961Z" fill="black"/>
<path d="M63.7782 5.8961V8.25013H56.9736V5.8961H63.7782ZM58.5185 3.18896H61.6523V13.7232C61.6523 14.0126 61.6964 14.2382 61.7847 14.4C61.873 14.557 61.9956 14.6673 62.1525 14.7311C62.3143 14.7948 62.5007 14.8267 62.7116 14.8267C62.8587 14.8267 63.0058 14.8144 63.153 14.7899C63.3001 14.7605 63.4129 14.7384 63.4914 14.7237L63.9842 17.0557C63.8273 17.1047 63.6066 17.1611 63.3222 17.2249C63.0377 17.2935 62.692 17.3352 62.2849 17.3499C61.5297 17.3794 60.8676 17.2788 60.2987 17.0483C59.7347 16.8178 59.2958 16.4598 58.9819 15.9743C58.668 15.4888 58.5136 14.8757 58.5185 14.1352V3.18896Z" fill="black"/>
<path d="M48.7251 17.1956V5.89621H51.7633V7.86771H51.881C52.0869 7.16641 52.4327 6.63675 52.9182 6.27874C53.4037 5.91583 53.9628 5.73438 54.5955 5.73438C54.7524 5.73438 54.9216 5.74418 55.103 5.7638C55.2845 5.78342 55.4439 5.81039 55.5812 5.84472V8.62542C55.4341 8.58128 55.2306 8.54205 54.9706 8.50772C54.7107 8.47339 54.4729 8.45622 54.2571 8.45622C53.7961 8.45622 53.3841 8.55676 53.0212 8.75783C52.6632 8.954 52.3787 9.22864 52.1679 9.58174C51.9619 9.93485 51.8589 10.3419 51.8589 10.8029V17.1956H48.7251Z" fill="black"/>
<path d="M35.8845 17.1956H32.4712L37.6721 2.12976H41.777L46.9705 17.1956H43.5572L39.7834 5.57253H39.6657L35.8845 17.1956ZM35.6712 11.2737H43.7338V13.7601H35.6712V11.2737Z" fill="black"/>
<path fill-rule="evenodd" clip-rule="evenodd" d="M0.905273 20.1549H5.15532L8.25138 14.8074H11.3193L16.0478 11.5127L21.6207 13.819L13.0081 0.919067L0.905273 20.1549ZM12.9799 6.62138L8.75801 13.895H11.0378L15.5131 10.7777L12.9799 6.62138Z" fill="black"/>
<path fill-rule="evenodd" clip-rule="evenodd" d="M0.905273 20.1549H5.15532L8.25138 14.8074H11.3193L16.0478 11.5127L21.6207 13.819L13.0081 0.919067L0.905273 20.1549ZM12.9799 6.62138L8.75801 13.895H11.0378L15.5131 10.7777L12.9799 6.62138Z" stroke="black"/>
<path fill-rule="evenodd" clip-rule="evenodd" d="M12.9799 6.62138L8.75801 13.895H11.0378L15.5131 10.7777L12.9799 6.62138Z" stroke="black"/>
</svg>
