<svg width="168" height="22" viewBox="0 0 168 22" fill="none" xmlns="http://www.w3.org/2000/svg">
<path d="M162.344 6.2489C163.414 6.24892 164.308 6.47809 165.046 6.91492L165.049 6.91687C165.798 7.35312 166.375 7.96288 166.784 8.75769L166.785 8.75964C167.193 9.54934 167.406 10.4877 167.406 11.5897C167.406 12.6813 167.193 13.6181 166.784 14.4139C166.426 15.1051 165.94 15.6593 165.322 16.0829L165.048 16.2567C164.31 16.6893 163.415 16.9159 162.344 16.9159C161.407 16.9159 160.603 16.7419 159.917 16.4081L159.631 16.2557C158.98 15.8695 158.459 15.3535 158.065 14.701L157.904 14.413C157.495 13.6173 157.283 12.6808 157.283 11.5897C157.283 10.4877 157.496 9.54936 157.904 8.75964V8.75769C158.313 7.96196 158.888 7.35198 159.632 6.91589H159.633C160.377 6.47829 161.274 6.2489 162.344 6.2489ZM162.359 7.63953C161.733 7.63953 161.174 7.82129 160.714 8.20496L160.711 8.20691C160.279 8.57297 159.967 9.05997 159.761 9.64343L159.76 9.64734C159.563 10.224 159.468 10.867 159.468 11.5682C159.468 12.2693 159.563 12.9116 159.76 13.4882L159.761 13.4921C159.941 14.0027 160.203 14.4396 160.555 14.786L160.711 14.9286L160.717 14.9335C161.177 15.3109 161.735 15.4882 162.359 15.4882C162.979 15.4881 163.533 15.3097 163.984 14.9286L163.987 14.9266C164.414 14.5595 164.72 14.0706 164.92 13.4872C165.123 12.9106 165.22 12.2688 165.22 11.5682C165.22 10.8672 165.123 10.2243 164.92 9.64734H164.921C164.721 9.06397 164.414 8.57596 163.987 8.20886C163.536 7.82155 162.981 7.63954 162.359 7.63953Z" fill="white" stroke="white"/>
<path d="M147.484 6.39612L149.721 14.3297L149.824 14.694H150.697L150.801 14.3307L153.059 6.39612H155.294L151.136 18.2516L151.135 18.2526C150.941 18.8123 150.68 19.2903 150.357 19.692L150.354 19.6969C150.048 20.0866 149.66 20.3878 149.182 20.6012L149.179 20.6022C148.71 20.8155 148.122 20.9323 147.399 20.9323C147.029 20.9322 146.686 20.903 146.371 20.8453L146.366 20.8444L146.139 20.8004C146.108 20.7938 146.078 20.7858 146.049 20.7789L146.475 19.3717C146.695 19.4174 146.907 19.4469 147.11 19.4537C147.499 19.4665 147.865 19.3751 148.181 19.1598C148.514 18.9358 148.744 18.5861 148.902 18.1783L148.903 18.1764L149.087 17.6989L149.153 17.528L149.093 17.3541L145.271 6.39612H147.484Z" fill="white" stroke="white"/>
<path d="M143.008 16.6952H140.553L137.839 12.6776L138.367 12.0751H139.113L139.263 11.9003L139.511 11.6102L143.008 16.6952ZM135.86 2.62976V9.68542H135.573L135.573 10.1844L135.566 13.9432L135.563 15.2772L135.86 14.9374V16.6952H133.726V2.62976H135.86ZM142.658 6.39636L139.598 9.97058L139.464 9.77625L139.114 9.26648L138.689 9.71667L136.86 11.6542V10.5682L136.911 10.5077L140.38 6.39636H142.658Z" fill="white" stroke="white"/>
<path d="M125.626 6.2489C126.696 6.24892 127.59 6.47809 128.329 6.91492L128.332 6.91687C129.081 7.35312 129.657 7.96288 130.066 8.75769L130.067 8.75964C130.475 9.54934 130.688 10.4877 130.688 11.5897C130.688 12.6813 130.475 13.6181 130.066 14.4139C129.708 15.1051 129.223 15.6593 128.604 16.0829L128.331 16.2567C127.592 16.6893 126.697 16.9159 125.626 16.9159C124.69 16.9159 123.885 16.7419 123.2 16.4081L122.914 16.2557C122.262 15.8695 121.741 15.3535 121.347 14.701L121.186 14.413C120.777 13.6173 120.565 12.6808 120.565 11.5897C120.565 10.4877 120.778 9.54936 121.186 8.75964V8.75769C121.595 7.96196 122.17 7.35198 122.915 6.91589H122.916C123.659 6.47828 124.557 6.2489 125.626 6.2489ZM125.641 7.63953C125.015 7.63953 124.456 7.82129 123.997 8.20496L123.994 8.20691C123.562 8.57297 123.249 9.05998 123.043 9.64343L123.042 9.64734C122.845 10.224 122.75 10.867 122.75 11.5682C122.751 12.2693 122.845 12.9116 123.042 13.4882L123.043 13.4921C123.223 14.0027 123.485 14.4396 123.837 14.786L123.994 14.9286L124 14.9335C124.459 15.3109 125.017 15.4882 125.641 15.4882C126.262 15.4881 126.815 15.3097 127.266 14.9286L127.269 14.9266C127.696 14.5595 128.003 14.0706 128.203 13.4872C128.405 12.9106 128.502 12.2688 128.502 11.5682C128.502 10.8672 128.405 10.2243 128.203 9.64734H128.204C128.004 9.06397 127.696 8.57596 127.269 8.20886C126.818 7.82155 126.264 7.63954 125.641 7.63953Z" fill="white" stroke="white"/>
<path d="M119.68 2.62976V4.25574H115.068V16.6952H112.92V4.25574H108.307V2.62976H119.68Z" fill="white" stroke="white"/>
<path d="M98.8608 8.75049V13.7231C98.8608 14.0119 98.898 14.2937 99.0044 14.5376L99.0542 14.6392L99.0571 14.645C99.197 14.8937 99.404 15.0847 99.6724 15.1938L99.6772 15.1958C99.9084 15.2869 100.16 15.3267 100.42 15.3267C100.551 15.3266 100.68 15.3154 100.81 15.2993L101.105 16.6929C101.048 16.7065 100.987 16.7222 100.921 16.7368L100.914 16.7388C100.672 16.7972 100.361 16.8362 99.9751 16.8501H99.9741C99.2737 16.8774 98.6846 16.7829 98.1948 16.5845C97.7209 16.3905 97.3648 16.097 97.1099 15.7026C96.8621 15.3191 96.7226 14.8082 96.7271 14.1382V8.75049H98.8608ZM100.987 6.396V7.75049H99.8608V6.396H100.987ZM98.8608 6.396V7.75049H96.7271V6.396H98.8608ZM95.7271 6.396V7.75049H95.1821V6.396H95.7271ZM98.8608 3.68896V5.396H96.7271V3.68896H98.8608Z" fill="white" stroke="white"/>
<path d="M88.4351 6.2489C89.7972 6.24893 90.8028 6.53759 91.5073 7.05652L91.5083 7.0575C92.0739 7.47162 92.4489 7.99825 92.6392 8.65417L90.731 8.77136C90.6578 8.60858 90.5625 8.45574 90.4458 8.31433C90.231 8.04917 89.9556 7.84683 89.6333 7.70203H89.6343C89.6317 7.70082 89.629 7.69931 89.6265 7.69812L89.6235 7.69714H89.6226C89.2835 7.53966 88.8991 7.47058 88.4858 7.47058C87.9993 7.47064 87.5516 7.56136 87.1597 7.7616L86.9946 7.85437C86.5409 8.12978 86.2573 8.54787 86.2573 9.08875C86.2573 9.51293 86.4358 9.87609 86.7544 10.1512C87.0681 10.4222 87.5412 10.5934 88.0874 10.7108L88.0933 10.7118L90.1382 11.1229C91.1896 11.339 91.9081 11.6754 92.354 12.0887C92.78 12.4837 93.0034 13.0028 93.0034 13.6942C93.0033 14.3283 92.8192 14.8688 92.4546 15.3358L92.4526 15.3378C92.0825 15.8172 91.5651 16.2044 90.8784 16.4901C90.1997 16.7696 89.4 16.9159 88.4712 16.9159C87.0404 16.9158 85.9601 16.6173 85.1831 16.0721C84.5677 15.6337 84.1612 15.0779 83.9556 14.3895L86.062 14.2792C86.217 14.6629 86.4705 14.9819 86.8247 15.2196L86.8286 15.2225C87.2897 15.5257 87.8517 15.6581 88.479 15.6581C89.0873 15.6581 89.6318 15.5411 90.0708 15.2635L90.0718 15.2626C90.5215 14.9758 90.81 14.5572 90.8179 14.0175V14.0018C90.8102 13.5577 90.6118 13.1844 90.2622 12.9149C89.9371 12.6598 89.4867 12.4983 88.9673 12.3944H88.9663L87.0103 12.0048C85.9611 11.7949 85.246 11.4428 84.8022 10.995C84.3709 10.5547 84.1461 9.99191 84.146 9.2655C84.146 8.6365 84.3137 8.11982 84.6333 7.69128C84.9665 7.25114 85.4429 6.89703 86.0884 6.6405L86.0874 6.63953C86.7374 6.38307 87.5168 6.2489 88.4351 6.2489Z" fill="white" stroke="white"/>
<path d="M73.7258 6.39612L75.9622 14.3297L76.0657 14.694H76.9387L77.0422 14.3307L79.3 6.39612H81.5354L77.3772 18.2516L77.3762 18.2526C77.1821 18.8123 76.9219 19.2903 76.5989 19.692L76.595 19.6969C76.2891 20.0866 75.901 20.3878 75.4231 20.6012L75.4202 20.6022C74.9516 20.8155 74.3638 20.9323 73.6409 20.9323C73.2703 20.9322 72.9277 20.903 72.6125 20.8453L72.6077 20.8444L72.3801 20.8004C72.3496 20.7938 72.3202 20.7858 72.2913 20.7789L72.7161 19.3717C72.9365 19.4174 73.1484 19.4469 73.3518 19.4537C73.7408 19.4665 74.1063 19.3751 74.4221 19.1598C74.7556 18.9358 74.9852 18.5861 75.1438 18.1783L75.1448 18.1764L75.3284 17.6989L75.3948 17.528L75.3342 17.3541L71.5129 6.39612H73.7258Z" fill="white" stroke="white"/>
<path d="M68.696 2.62976V16.6952H66.5623V2.62976H68.696Z" fill="white" stroke="white"/>
<path d="M61.1523 8.75049V13.7231C61.1523 14.0119 61.1895 14.2937 61.2959 14.5376L61.3457 14.6392L61.3486 14.645C61.4885 14.8937 61.6955 15.0847 61.9639 15.1938L61.9688 15.1958C62.1999 15.2869 62.4513 15.3267 62.7119 15.3267C62.8422 15.3266 62.9719 15.3154 63.1016 15.2993L63.3965 16.6929C63.3392 16.7065 63.2783 16.7222 63.2129 16.7368L63.2051 16.7388C62.963 16.7972 62.6521 16.8362 62.2666 16.8501H62.2656C61.5652 16.8774 60.9761 16.7829 60.4863 16.5845C60.0125 16.3905 59.6563 16.097 59.4014 15.7026C59.1536 15.3191 59.0141 14.8082 59.0186 14.1382V8.75049H61.1523ZM63.2783 6.396V7.75049H62.1523V6.396H63.2783ZM61.1523 6.396V7.75049H59.0186V6.396H61.1523ZM58.0186 6.396V7.75049H57.4736V6.396H58.0186ZM61.1523 3.68896V5.396H59.0186V3.68896H61.1523Z" fill="white" stroke="white"/>
<path d="M54.5952 6.23438C54.7316 6.23438 54.8829 6.24275 55.0493 6.26074C55.0602 6.26192 55.0709 6.26342 55.0815 6.26465V8.01855C55.0665 8.01649 55.0509 8.01374 55.0356 8.01172C54.7587 7.97516 54.4988 7.95607 54.2573 7.95605C53.7219 7.95605 53.2253 8.07348 52.7808 8.31934C52.3442 8.55859 51.9949 8.89638 51.7388 9.3252L51.7358 9.33008C51.4799 9.76893 51.3589 10.2649 51.3589 10.8027V16.6953H49.2251V6.39648H51.2632V8.36816H52.2554L52.3608 8.00879C52.5427 7.38952 52.8351 6.962 53.2153 6.68164L53.2173 6.67969C53.6124 6.38438 54.0655 6.23442 54.5952 6.23438Z" fill="white" stroke="white"/>
<path d="M46.269 16.6952H43.9204L43.1304 14.2606H44.2339V10.7909L46.269 16.6952ZM35.1714 14.2606H36.313L35.521 16.6952H33.1724L35.1714 10.9052V14.2606ZM43.2339 11.7733V13.2606H42.8052L42.3228 11.7733H43.2339ZM41.271 11.7733L41.7544 13.2606H37.6899L38.1743 11.7733H41.271ZM37.1226 11.7733L36.6382 13.2606H36.1714V11.7733H37.1226ZM41.4204 2.62976L44.228 10.7733H41.9976L40.2593 5.41785L40.147 5.07214H39.3022L39.1899 5.41785L37.4478 10.7733H35.2173L38.0288 2.62976H41.4204Z" fill="white" stroke="white"/>
<path fill-rule="evenodd" clip-rule="evenodd" d="M0.905273 20.1549H5.15532L8.25138 14.8074H11.3193L16.0478 11.5127L21.6207 13.819L13.0081 0.919067L0.905273 20.1549ZM12.9799 6.62138L8.75801 13.895H11.0378L15.5131 10.7777L12.9799 6.62138Z" fill="white"/>
<path fill-rule="evenodd" clip-rule="evenodd" d="M0.905273 20.1549H5.15532L8.25138 14.8074H11.3193L16.0478 11.5127L21.6207 13.819L13.0081 0.919067L0.905273 20.1549ZM12.9799 6.62138L8.75801 13.895H11.0378L15.5131 10.7777L12.9799 6.62138Z" stroke="white"/>
<path fill-rule="evenodd" clip-rule="evenodd" d="M12.9799 6.62138L8.75801 13.895H11.0378L15.5131 10.7777L12.9799 6.62138Z" stroke="white"/>
</svg>
